General
Complete name                    : Prinsessa.mkv
Format                           : Matroska
File size                        : 1.02 GiB
Duration                         : 1h 30mn
Overall bit rate                 : 1 627 Kbps


Video
ID                               : 1
Format                           : AVC
Duration                         : 1h 30mn
Bit rate                         : 1 146 Kbps
Width                            : 720 pixels
Height                           : 556 pixels
Display aspect ratio             : 16:9
Original display aspect ratio    : 16:9
Frame rate                       : 25.000 fps
Resolution                       : 8 bits
Colorimetry                      : 4:2:0
Scan type                        : Progressive
Bits/(Pixel*Frame)               : 0.115
Stream size                      : 738 MiB (70%)
Writing library                  : x264 core 79

Audio
ID                               : 2
Format                           : AC-3
Format/Info                      : Audio Coding 3
Codec ID                         : A_AC3
Duration                         : 1h 30mn
Bit rate mode                    : Constant
Bit rate                         : 448 Kbps
Channel(s)                       : 6 channels
Channel positions                : Front: L C R, Surround: L R, LFE
Sampling rate                    : 48.0 KHz
Stream size                      : 288 MiB (28%)
Language                         : Swedish

Text #1
Language                         : Swedish

Text #2
Language                         : Norwegian

Text #3
Language                         : English

Menu
00:00:00.000                     : Chapter  1


